Coordinates
version=1
nRows=30
nColumns=23
inDegrees=yes

Units are S.I. units (second, meters, Newtons, ...)
If the header above contains a line with 'inDegrees', this indicates whether rotational values are in degrees (yes) or radians (no).

endheader
time	pelvis_tilt	pelvis_list	pelvis_rotation	pelvis_tx	pelvis_ty	pelvis_tz	hip_flexion_r	hip_adduction_r	hip_rotation_r	knee_angle_r	knee_angle_r_beta	ankle_angle_r	subtalar_angle_r	mtp_angle_r	hip_flexion_l	hip_adduction_l	hip_rotation_l	knee_angle_l	knee_angle_l_beta	ankle_angle_l	subtalar_angle_l	mtp_angle_l
     15.00000000	     -2.03911033	     -9.67091887	     -5.55657786	      2.21730041	      0.96868981	      1.03092821	     33.66680605	     16.15457169	     -0.59435691	     49.36022826	      0.86149850	     13.44104417	     -8.24052480	      0.00000000	     -2.41280092	    -10.62452347	     -3.48735438	     87.96580771	      1.53529297	    -15.40463438	    -23.15655296	      0.00000000
     15.00666667	     -1.89465261	    -10.01066325	     -5.92974569	      2.21623783	      0.96419229	      1.03125901	     33.05662546	     16.95578284	     -0.11574070	     51.39214496	      0.89696214	     15.36453645	     -8.87305996	      0.00000000	     -0.77772144	    -11.56180855	     -3.85109797	     90.55178812	      1.58042685	    -14.70358329	    -23.79823566	      0.00000000
     15.01333333	     -2.84813563	    -10.11541098	     -6.45847402	      2.21454884	      0.95867300	      1.03203505	     33.55170449	     17.78565762	      0.74540581	     53.25373907	      0.92945309	     17.18285740	     -9.53876022	      0.00000000	      2.32993726	    -12.44745883	     -4.03501605	     93.29000718	      1.62821778	    -13.81449467	    -23.87986414	      0.00000000
     15.02000000	     -3.26500267	    -10.26499486	     -6.84722839	      2.21291371	      0.95446593	      1.03252146	     33.22139332	     18.47292282	      1.49200269	     54.74553645	      0.95548986	     19.00809639	     -9.95257396	      0.00000000	      4.88772737	    -13.27714409	     -4.06194170	     95.69143833	      1.67013066	    -13.06672326	    -24.05450566	      0.00000000
     15.02666667	     -3.61993033	    -10.33765280	     -7.14846364	      2.21119403	      0.95103843	      1.03288176	     32.61777544	     18.99211811	      2.24588165	     55.90020385	      0.97564261	     20.77976411	    -10.18900470	      0.00000000	      7.49520391	    -13.94543264	     -3.88621003	     97.84502597	      1.70771786	    -12.35283770	    -24.10314070	      0.00000000
     15.03333333	     -3.52617514	    -10.38095087	     -7.33455812	      2.20961934	      0.94889692	      1.03297185	     31.27855949	     19.32711072	      3.01764382	     56.67960761	      0.98924577	     22.50307325	    -10.36073231	      0.00000000	      9.63679121	    -14.45080324	     -3.62063235	     99.63293022	      1.73892268	    -11.76517669	    -24.29440096	      0.00000000
     15.04000000	     -4.03428504	    -10.28083783	     -7.51714076	      2.20775484	      0.94655616	      1.03312879	     30.49597972	     19.47101342	      3.66593989	     57.22172839	      0.99870756	     23.96857937	    -10.17075640	      0.00000000	     12.63777640	    -14.83440609	     -3.14360800	    101.33117816	      1.76856269	    -11.01798846	    -23.88444205	      0.00000000
     15.04666667	     -3.94811175	    -10.13636006	     -7.51222510	      2.20618308	      0.94582914	      1.03291769	     28.82381789	     19.38325147	      4.32393385	     57.35787637	      1.00108379	     25.33740377	    -10.08853313	      0.00000000	     14.96233141	    -14.93728898	     -2.57696867	    102.56336241	      1.79006837	    -10.40591781	    -23.75537257	      0.00000000
     15.05333333	     -3.79618654	     -9.87372612	     -7.53610947	      2.20478655	      0.94615694	      1.03269514	     26.83878922	     19.13542935	      5.10827603	     57.06174785	      0.99591538	     26.05721729	     -9.86236462	      0.00000000	     17.16793741	    -14.77018025	     -2.03541129	    103.39297589	      1.80454785	    -10.03509412	    -23.63230042	      0.00000000
     15.06000000	     -3.94815726	     -9.65594124	     -7.19168686	      2.20339957	      0.94625273	      1.03195983	     25.26816361	     18.56824437	      5.08410180	     56.72751196	      0.99008186	     27.33024000	     -9.22337282	      0.00000000	     19.91150112	    -14.56766710	     -1.07524015	    104.14414270	      1.81765819	     -8.83761858	    -22.68543706	      0.00000000
     15.06666667	     -3.80133348	     -9.30515549	     -6.91545651	      2.20234952	      0.94764880	      1.03128741	     23.14138566	     17.86719472	      5.29927212	     55.99256706	      0.97725465	     27.97742686	     -8.51719337	      0.00000000	     22.12827643	    -14.08550313	     -0.34469094	    104.39157691	      1.82197673	     -8.01434691	    -22.07306102	      0.00000000
     15.07333333	     -3.64111698	     -8.90473953	     -6.59764996	      2.20158899	      0.94973493	      1.03058793	     20.87498446	     17.07149228	      5.48575537	     54.98090984	      0.95959790	     28.39285335	     -7.88562965	      0.00000000	     24.22427028	    -13.45867420	      0.34682024	    104.28379923	      1.82009565	     -7.17524796	    -21.49071290	      0.00000000
     15.08000000	     -3.75756612	     -8.44889973	     -6.47352946	      2.20095709	      0.95206405	      1.03026887	     18.79544973	     16.41553420	      6.05405719	     53.77152508	      0.93849016	     28.60969415	     -7.47765734	      0.00000000	     26.45436667	    -12.83206625	      0.82488131	    103.84510226	      1.81243895	     -6.57288519	    -21.24898835	      0.00000000
     15.08666667	     -3.33600095	     -7.94424442	     -5.79246686	      2.20089481	      0.95546352	      1.02908496	     16.11998582	     15.19938438	      5.66150079	     52.30468024	      0.91288888	     28.67234185	     -6.59608552	      0.00000000	     28.05865674	    -11.77806033	      1.59225999	    103.07968047	      1.79907982	     -5.25408156	    -20.28188726	      0.00000000
     15.09333333	     -3.04254103	     -7.36294801	     -5.49787024	      2.20113477	      0.95924302	      1.02851038	     13.48110707	     14.03911231	      5.58227207	     50.71688598	      0.88517665	     28.74552153	     -4.77262336	      0.00000000	     29.49220933	    -10.84715336	      1.87358810	    101.94246733	      1.77923170	     -4.23441226	    -19.57230304	      0.00000000
     15.10000000	     -2.94691138	     -6.71436372	     -5.13106751	      2.20153994	      0.96319793	      1.02792465	     11.03547401	     12.91137441	      5.59970833	     48.98624773	      0.85497131	     28.58243260	     -3.76617608	      0.00000000	     31.03207146	     -9.76582982	      2.17557501	    100.52606047	      1.75451074	     -3.35156184	    -19.05787776	      0.00000000
     15.10666667	     -2.95724026	     -6.02508176	     -4.82785997	      2.20223175	      0.96737719	      1.02742773	      8.68107698	     11.76782976	      5.63276188	     47.14632627	      0.82285862	     28.19784116	     -2.73033800	      0.00000000	     32.50761517	     -8.64614362	      2.35006013	     98.82934755	      1.72489751	     -2.43722391	    -18.69543874	      0.00000000
     15.11333333	     -3.11570579	     -5.30497011	     -4.56467299	      2.20315052	      0.97170863	      1.02702239	      6.48853566	     10.61817776	      5.64220451	     45.21026059	      0.78906790	     27.35218367	     -1.88933046	      0.00000000	     33.97814635	     -7.52207665	      2.42636806	     96.86223382	      1.69056490	     -1.57056225	    -18.44578950	      0.00000000
     15.12000000	     -3.21960147	     -4.56265449	     -4.32808943	      2.20436491	      0.97646765	      1.02663512	      4.21214488	      9.44693139	      5.62363936	     43.12931398	      0.75274853	     26.07812060	     -1.00802759	      0.00000000	     35.20089613	     -6.39796681	      2.38363581	     94.60317550	      1.65113690	     -0.83637168	    -18.31260159	      0.00000000
     15.12666667	     -3.43248084	     -3.80524389	     -4.13300939	      2.20586945	      0.98133814	      1.02627131	      2.06639422	      8.26137522	      5.52856130	     40.96532826	      0.71497986	     24.33519315	     -0.23236734	      0.00000000	     36.37218109	     -5.29298212	      2.26395879	     92.09401136	      1.60734372	     -0.24211202	    -18.34097611	      0.00000000
     15.13333333	     -3.78245288	     -3.05222995	     -3.95214822	      2.20747224	      0.98619749	      1.02594171	      0.12503814	      7.10144998	      5.32540478	     38.77129738	      0.67668679	     21.97379688	      0.36049867	      0.00000000	     37.56614534	     -4.24650924	      2.08364350	     89.37586940	      1.55990319	      0.33758205	    -18.44000547	      0.00000000
     15.14000000	     -3.92182696	     -2.24765575	     -3.71542091	      2.20937538	      0.99155974	      1.02546161	     -2.04822262	      5.88988203	      5.04132785	     36.45690809	      0.63629308	     19.33670147	      0.86143941	      0.00000000	     38.33272073	     -3.08128734	      1.89216153	     86.34094370	      1.50693375	      0.60608988	    -18.84952802	      0.00000000
     15.14666667	     -4.33605531	     -1.46992259	     -3.51146720	      2.21129085	      0.99656992	      1.02503034	     -3.80628425	      4.71930994	      4.57045213	     34.23923895	      0.59758745	     16.22991147	      1.32444674	      0.00000000	     39.29927542	     -2.03847586	      1.64810847	     83.14940999	      1.45123098	      0.86398977	    -19.21006905	      0.00000000
     15.15333333	     -4.76980452	     -0.70655128	     -3.30187569	      2.21332191	      1.00162201	      1.02454422	     -5.48028120	      3.59115682	      4.00637014	     32.03318311	      0.55908452	     12.79404686	      1.74308624	      0.00000000	     40.13793019	     -1.01970156	      1.39396412	     79.73677116	      1.39166919	      1.02357808	    -19.62858055	      0.00000000
     15.16000000	     -5.01307938	      0.07412035	     -3.04144510	      2.21546827	      1.00692881	      1.02404262	     -7.31803459	      2.45659473	      3.27287874	     29.79332396	      0.51999160	      9.07433933	      2.00855646	      0.00000000	     40.61289266	      0.02062591	      1.13868319	     76.08465371	      1.32792772	      1.03446592	    -20.23243147	      0.00000000
     15.16666667	     -5.40856214	      0.78802000	     -2.82566977	      2.21754891	      1.01194226	      1.02362163	     -8.86037480	      1.43752003	      2.51704584	     27.70961526	      0.48362402	      5.13527304	      2.23871497	      0.00000000	     41.14173258	      0.89685145	      0.82519949	     72.27870087	      1.26150131	      1.01706216	    -20.72369150	      0.00000000
     15.17333333	     -5.84770090	      1.45447050	     -2.52844068	      2.21957454	      1.01670875	      1.02307373	    -10.20932481	      0.47705557	      1.47749630	     25.84213620	      0.45103036	      1.14008777	      2.59395454	      0.00000000	     41.60622102	      1.75545598	      0.57136950	     68.32861967	      1.19255939	      1.10064945	    -20.92407475	      0.00000000
     15.18000000	     -6.19534802	      2.06751558	     -2.27531329	      2.22157242	      1.02142908	      1.02265658	    -11.55070518	     -0.39191390	      0.46012848	     24.11586891	      0.42090131	     -2.85481310	      2.87172200	      0.00000000	     41.84201040	      2.48992756	      0.25649329	     64.22912601	      1.12100972	      1.13753685	    -21.09345241	      0.00000000
     15.18666667	     -6.58621542	      2.62112901	     -1.96422900	      2.22345024	      1.02583283	      1.02210067	    -12.67794192	     -1.19324979	     -0.77050459	     22.67985490	      0.39583814	     -6.72797395	      3.19255263	      0.00000000	     42.03505744	      3.16897626	     -0.05721342	     60.04262765	      1.04794154	      1.28929452	    -20.89497860	      0.00000000
     15.19333333	     -6.82824947	      3.10159763	     -1.71269668	      2.22528849	      1.03014072	      1.02163642	    -13.84609915	     -1.90877540	     -1.96654213	     21.46175626	      0.37457831	    -10.30627543	      3.46182472	      0.00000000	     41.94533005	      3.74826268	     -0.38289488	     55.76161953	      0.97322386	      1.46688309	    -20.52594651	      0.00000000
